%TF.GenerationSoftware,KiCad,Pcbnew,8.0.3*%
%TF.CreationDate,2025-02-27T15:05:35+03:00*%
%TF.ProjectId,scheme,73636865-6d65-42e6-9b69-6361645f7063,rev?*%
%TF.SameCoordinates,Original*%
%TF.FileFunction,Copper,L1,Top*%
%TF.FilePolarity,Positive*%
%FSLAX46Y46*%
G04 Gerber Fmt 4.6, Leading zero omitted, Abs format (unit mm)*
G04 Created by KiCad (PCBNEW 8.0.3) date 2025-02-27 15:05:35*
%MOMM*%
%LPD*%
G01*
G04 APERTURE LIST*
%TA.AperFunction,ComponentPad*%
%ADD10R,1.700000X1.700000*%
%TD*%
%TA.AperFunction,ComponentPad*%
%ADD11O,1.700000X1.700000*%
%TD*%
%TA.AperFunction,ComponentPad*%
%ADD12R,1.600000X1.600000*%
%TD*%
%TA.AperFunction,ComponentPad*%
%ADD13O,1.600000X1.600000*%
%TD*%
%TA.AperFunction,Conductor*%
%ADD14C,0.600000*%
%TD*%
%TA.AperFunction,Conductor*%
%ADD15C,0.200000*%
%TD*%
G04 APERTURE END LIST*
D10*
%TO.P,REF\u002A\u002A,GND*%
%TO.N,GND*%
X62500000Y-26975000D03*
D11*
%TO.P,REF\u002A\u002A,S*%
%TO.N,MOSFET*%
X62500000Y-32055000D03*
%TO.P,REF\u002A\u002A,VCC*%
%TO.N,5V*%
X62500000Y-29515000D03*
%TD*%
%TO.P,REF\u002A\u002A,B*%
%TO.N,B*%
X86540000Y-43475000D03*
%TO.P,REF\u002A\u002A,G*%
%TO.N,G*%
X84000000Y-43475000D03*
D10*
%TO.P,REF\u002A\u002A,GND*%
%TO.N,GND*%
X78920000Y-43475000D03*
D11*
%TO.P,REF\u002A\u002A,R*%
%TO.N,R*%
X81460000Y-43475000D03*
%TD*%
D10*
%TO.P,REF\u002A\u002A,GND*%
%TO.N,GND*%
X86420000Y-69000000D03*
D11*
%TO.P,REF\u002A\u002A,S*%
%TO.N,Noise*%
X91500000Y-69000000D03*
%TO.P,REF\u002A\u002A,VCC*%
%TO.N,5V*%
X88960000Y-69000000D03*
%TD*%
D10*
%TO.P,REF\u002A\u002A,GND*%
%TO.N,GND*%
X54000000Y-44450000D03*
D11*
%TO.P,REF\u002A\u002A,S*%
%TO.N,BUTTON*%
X54000000Y-49530000D03*
%TO.P,REF\u002A\u002A,VCC*%
%TO.N,5V*%
X54000000Y-46990000D03*
%TD*%
D10*
%TO.P,REF\u002A\u002A,GND*%
%TO.N,GND*%
X79435000Y-53975000D03*
D11*
%TO.P,REF\u002A\u002A,S*%
%TO.N,Hum*%
X84515000Y-53975000D03*
%TO.P,REF\u002A\u002A,VCC*%
%TO.N,5V*%
X81975000Y-53975000D03*
%TD*%
D10*
%TO.P,REF\u002A\u002A,GND*%
%TO.N,GND*%
X67500000Y-64000000D03*
D11*
%TO.P,REF\u002A\u002A,S*%
%TO.N,RESET*%
X67500000Y-58920000D03*
%TO.P,REF\u002A\u002A,VCC*%
%TO.N,5V*%
X67500000Y-61460000D03*
%TD*%
D12*
%TO.P,REF\u002A\u002A,1*%
%TO.N,N/C*%
X68500000Y-74855000D03*
D13*
%TO.P,REF\u002A\u002A,2*%
X68500000Y-77395000D03*
%TO.P,REF\u002A\u002A,5V*%
%TO.N,5V*%
X53260000Y-82475000D03*
%TO.P,REF\u002A\u002A,15*%
%TO.N,N/C*%
X68500000Y-110415000D03*
%TO.P,REF\u002A\u002A,16*%
X53260000Y-110415000D03*
%TO.P,REF\u002A\u002A,17*%
X53260000Y-107875000D03*
%TO.P,REF\u002A\u002A,18*%
X53260000Y-105335000D03*
%TO.P,REF\u002A\u002A,A0*%
X53260000Y-102795000D03*
%TO.P,REF\u002A\u002A,A1*%
X53260000Y-100255000D03*
%TO.P,REF\u002A\u002A,A2*%
X53260000Y-97715000D03*
%TO.P,REF\u002A\u002A,A3*%
X53260000Y-95175000D03*
%TO.P,REF\u002A\u002A,A4*%
%TO.N,A4_SDA*%
X53260000Y-92635000D03*
%TO.P,REF\u002A\u002A,A5*%
%TO.N,A5_SCL*%
X53260000Y-90095000D03*
%TO.P,REF\u002A\u002A,A6*%
%TO.N,N/C*%
X53260000Y-87555000D03*
%TO.P,REF\u002A\u002A,A7*%
X53260000Y-85015000D03*
%TO.P,REF\u002A\u002A,D2*%
%TO.N,BUTTON*%
X68500000Y-85015000D03*
%TO.P,REF\u002A\u002A,D3*%
%TO.N,MOSFET*%
X68500000Y-87555000D03*
%TO.P,REF\u002A\u002A,D4*%
%TO.N,Hum*%
X68500000Y-90095000D03*
%TO.P,REF\u002A\u002A,D5*%
%TO.N,R*%
X68500000Y-92635000D03*
%TO.P,REF\u002A\u002A,D6*%
%TO.N,G*%
X68500000Y-95175000D03*
%TO.P,REF\u002A\u002A,D7*%
%TO.N,B*%
X68500000Y-97715000D03*
%TO.P,REF\u002A\u002A,D8*%
%TO.N,Noise*%
X68500000Y-100255000D03*
%TO.P,REF\u002A\u002A,D9*%
%TO.N,D9_Noise*%
X68500000Y-102795000D03*
%TO.P,REF\u002A\u002A,D10*%
%TO.N,N/C*%
X68500000Y-105335000D03*
%TO.P,REF\u002A\u002A,D11*%
X68500000Y-107875000D03*
%TO.P,REF\u002A\u002A,GND*%
%TO.N,GND*%
X68500000Y-82475000D03*
X53260000Y-77395000D03*
%TO.P,REF\u002A\u002A,RST*%
%TO.N,RESET*%
X68500000Y-79935000D03*
%TO.N,N/C*%
X53260000Y-79935000D03*
%TO.P,REF\u002A\u002A,VIN*%
%TO.N,ARDUINO_VIN*%
X53260000Y-74855000D03*
%TD*%
D11*
%TO.P,REF\u002A\u002A,GND*%
%TO.N,GND*%
X83180000Y-81000000D03*
D10*
%TO.P,REF\u002A\u002A,SCL*%
%TO.N,A5_SCL*%
X90800000Y-81000000D03*
D11*
%TO.P,REF\u002A\u002A,SDA*%
%TO.N,A4_SDA*%
X88260000Y-81000000D03*
%TO.P,REF\u002A\u002A,VCC*%
%TO.N,5V*%
X85720000Y-81000000D03*
%TD*%
%TO.P,REF\u002A\u002A,GND*%
%TO.N,GND*%
X85140000Y-75000000D03*
D10*
%TO.P,REF\u002A\u002A,SCL*%
%TO.N,A5_SCL*%
X92760000Y-75000000D03*
D11*
%TO.P,REF\u002A\u002A,SDA*%
%TO.N,A4_SDA*%
X90220000Y-75000000D03*
%TO.P,REF\u002A\u002A,VCC*%
%TO.N,5V*%
X87680000Y-75000000D03*
%TD*%
D14*
%TO.N,A5_SCL*%
X51560000Y-91795000D02*
X53260000Y-90095000D01*
X51560000Y-111119164D02*
X51560000Y-91795000D01*
X53755836Y-113315000D02*
X51560000Y-111119164D01*
X74185000Y-113315000D02*
X53755836Y-113315000D01*
X90800000Y-96700000D02*
X74185000Y-113315000D01*
X90800000Y-81000000D02*
X90800000Y-96700000D01*
%TO.N,A4_SDA*%
X67640000Y-112115000D02*
X54960000Y-99435000D01*
X73385000Y-112115000D02*
X67640000Y-112115000D01*
X54960000Y-94335000D02*
X53260000Y-92635000D01*
X88260000Y-97240000D02*
X73385000Y-112115000D01*
X54960000Y-99435000D02*
X54960000Y-94335000D01*
X88260000Y-81000000D02*
X88260000Y-97240000D01*
%TO.N,A5_SCL*%
X90800000Y-80200000D02*
X90800000Y-81000000D01*
X92760000Y-78240000D02*
X90800000Y-80200000D01*
X92760000Y-75000000D02*
X92760000Y-78240000D01*
%TO.N,A4_SDA*%
X88260000Y-79680000D02*
X88260000Y-81000000D01*
X90220000Y-77720000D02*
X88260000Y-79680000D01*
X90220000Y-75000000D02*
X90220000Y-77720000D01*
%TO.N,5V*%
X85720000Y-80200000D02*
X85720000Y-81000000D01*
X87680000Y-78240000D02*
X85720000Y-80200000D01*
X87680000Y-75000000D02*
X87680000Y-78240000D01*
%TO.N,GND*%
X85140000Y-78240000D02*
X83180000Y-80200000D01*
X83180000Y-80200000D02*
X83180000Y-81000000D01*
X85140000Y-75000000D02*
X85140000Y-78240000D01*
X79435000Y-43990000D02*
X79435000Y-53975000D01*
X51050000Y-47400000D02*
X51050000Y-51222056D01*
X78920000Y-37197944D02*
X68697056Y-26975000D01*
X79500000Y-53910000D02*
X79435000Y-53975000D01*
X67500000Y-64000000D02*
X66655000Y-64000000D01*
X54000000Y-44450000D02*
X51050000Y-47400000D01*
D15*
X79435000Y-53975000D02*
X79435000Y-54450000D01*
X79435000Y-54450000D02*
X79380000Y-54505000D01*
D14*
X86420000Y-73720000D02*
X85140000Y-75000000D01*
X78920000Y-43475000D02*
X79435000Y-43990000D01*
X78920000Y-43475000D02*
X78920000Y-37197944D01*
X63827944Y-64000000D02*
X67500000Y-64000000D01*
X54000000Y-35475000D02*
X62500000Y-26975000D01*
D15*
X62500000Y-26975000D02*
X62500000Y-27055000D01*
D14*
X86420000Y-69000000D02*
X86420000Y-73720000D01*
X54000000Y-44450000D02*
X54000000Y-35475000D01*
X78920000Y-43475000D02*
X79500000Y-44055000D01*
X66655000Y-64000000D02*
X53260000Y-77395000D01*
X68697056Y-26975000D02*
X62500000Y-26975000D01*
X51050000Y-51222056D02*
X63827944Y-64000000D01*
%TO.N,5V*%
X54000000Y-46990000D02*
X52250000Y-48740000D01*
X69500000Y-47540000D02*
X69500000Y-29475000D01*
X54960000Y-46990000D02*
X54000000Y-46990000D01*
X69250000Y-66485000D02*
X53260000Y-82475000D01*
X62500000Y-29515000D02*
X55750000Y-36265000D01*
X69460000Y-29515000D02*
X62500000Y-29515000D01*
X55750000Y-36265000D02*
X55750000Y-46200000D01*
X52250000Y-48740000D02*
X52250000Y-50725000D01*
X67500000Y-61460000D02*
X68702081Y-61460000D01*
X81975000Y-55177081D02*
X81177081Y-55975000D01*
X52250000Y-50725000D02*
X62985000Y-61460000D01*
X55750000Y-46200000D02*
X54960000Y-46990000D01*
X62985000Y-61460000D02*
X67500000Y-61460000D01*
X81975000Y-53975000D02*
X81975000Y-55177081D01*
X68702081Y-61460000D02*
X69250000Y-62007919D01*
X81177081Y-55975000D02*
X77935000Y-55975000D01*
X88960000Y-69000000D02*
X88960000Y-73720000D01*
X88960000Y-73720000D02*
X87680000Y-75000000D01*
X69250000Y-62007919D02*
X69250000Y-66485000D01*
X69500000Y-29475000D02*
X69460000Y-29515000D01*
X77935000Y-55975000D02*
X69500000Y-47540000D01*
%TO.N,RESET*%
X67500000Y-58920000D02*
X67500000Y-58985126D01*
X67924263Y-58985126D02*
X70500000Y-61560863D01*
X70500000Y-77935000D02*
X68500000Y-79935000D01*
X67500000Y-58985126D02*
X67924263Y-58985126D01*
X70500000Y-61560863D02*
X70500000Y-77935000D01*
%TO.N,BUTTON*%
X71700000Y-60645126D02*
X71700000Y-81815000D01*
X71700000Y-81815000D02*
X68500000Y-85015000D01*
X54000000Y-49530000D02*
X60584874Y-49530000D01*
X60584874Y-49530000D02*
X71700000Y-60645126D01*
%TO.N,MOSFET*%
X62500000Y-32055000D02*
X62500000Y-49748070D01*
X62500000Y-49748070D02*
X73000000Y-60248070D01*
X73000000Y-83055000D02*
X68500000Y-87555000D01*
X73000000Y-60248070D02*
X73000000Y-83055000D01*
%TO.N,R*%
X86265000Y-55210000D02*
X82598528Y-58876472D01*
X81460000Y-43475000D02*
X86265000Y-48280000D01*
X75400000Y-59177944D02*
X75400000Y-85735000D01*
X75400000Y-85735000D02*
X68500000Y-92635000D01*
X75098528Y-58876472D02*
X75400000Y-59177944D01*
X86265000Y-48280000D02*
X86265000Y-55210000D01*
X82598528Y-58876472D02*
X75098528Y-58876472D01*
%TO.N,G*%
X83095584Y-60076472D02*
X77000000Y-60076472D01*
X77000000Y-60076472D02*
X77000000Y-86675000D01*
X84000000Y-43475000D02*
X87465000Y-46940000D01*
X87465000Y-46940000D02*
X87465000Y-55707056D01*
X87465000Y-55707056D02*
X83095584Y-60076472D01*
X77000000Y-86675000D02*
X68500000Y-95175000D01*
%TO.N,B*%
X83394112Y-61475000D02*
X78200000Y-61475000D01*
X88665000Y-45600000D02*
X88665000Y-56204112D01*
X88665000Y-56204112D02*
X83394112Y-61475000D01*
X78200000Y-61475000D02*
X78200000Y-88015000D01*
X78200000Y-88015000D02*
X68500000Y-97715000D01*
X86540000Y-43475000D02*
X88665000Y-45600000D01*
%TO.N,Hum*%
X84515000Y-55262944D02*
X82302944Y-57475000D01*
X74200000Y-84395000D02*
X68500000Y-90095000D01*
X72000000Y-57475000D02*
X74200000Y-59675000D01*
X82302944Y-57475000D02*
X72000000Y-57475000D01*
X74200000Y-59675000D02*
X74200000Y-84395000D01*
X84515000Y-53975000D02*
X84515000Y-55262944D01*
%TO.N,Noise*%
X89750000Y-67250000D02*
X85150000Y-67250000D01*
X79400000Y-73000000D02*
X79400000Y-89355000D01*
X91500000Y-69000000D02*
X89750000Y-67250000D01*
X79400000Y-89355000D02*
X68500000Y-100255000D01*
X85150000Y-67250000D02*
X79400000Y-73000000D01*
%TD*%
M02*
