M48
; DRILL file {KiCad 8.0.3} date 2025-02-27T15:02:27+0300
; FORMAT={-:-/ absolute / inch / decimal}
; #@! TF.CreationDate,2025-02-27T15:02:27+03:00
; #@! TF.GenerationSoftware,Kicad,Pcbnew,8.0.3
; #@! TF.FileFunction,Plated,1,2,PTH
FMAT,2
INCH
; #@! TA.AperFunction,Plated,PTH,ComponentDrill
T1C0.0394
%
G90
G05
T1
X2.0969Y-2.947
X2.0969Y-3.047
X2.0969Y-3.147
X2.0969Y-3.247
X2.0969Y-3.347
X2.0969Y-3.447
X2.0969Y-3.547
X2.0969Y-3.647
X2.0969Y-3.747
X2.0969Y-3.847
X2.0969Y-3.947
X2.0969Y-4.047
X2.0969Y-4.147
X2.0969Y-4.247
X2.0969Y-4.347
X2.126Y-1.75
X2.126Y-1.85
X2.126Y-1.95
X2.4606Y-1.062
X2.4606Y-1.162
X2.4606Y-1.262
X2.6575Y-2.3197
X2.6575Y-2.4197
X2.6575Y-2.5197
X2.6969Y-2.947
X2.6969Y-3.047
X2.6969Y-3.147
X2.6969Y-3.247
X2.6969Y-3.347
X2.6969Y-3.447
X2.6969Y-3.547
X2.6969Y-3.647
X2.6969Y-3.747
X2.6969Y-3.847
X2.6969Y-3.947
X2.6969Y-4.047
X2.6969Y-4.147
X2.6969Y-4.247
X2.6969Y-4.347
X3.1071Y-1.7116
X3.1274Y-2.125
X3.2071Y-1.7116
X3.2274Y-2.125
X3.2748Y-3.189
X3.3071Y-1.7116
X3.3274Y-2.125
X3.352Y-2.9528
X3.3748Y-3.189
X3.4024Y-2.7165
X3.4071Y-1.7116
X3.452Y-2.9528
X3.4748Y-3.189
X3.5024Y-2.7165
X3.552Y-2.9528
X3.5748Y-3.189
X3.6024Y-2.7165
X3.652Y-2.9528
M30
